<svg width="20" height="20" viewBox="0 0 20 20" fill="none" xmlns="http://www.w3.org/2000/svg">
<path d="M13.5816 11.3824C14.0558 11.0374 14.44 10.5912 14.7038 10.079C14.9677 9.56689 15.104 9.00282 15.102 8.43137C15.102 7.44331 14.6935 6.49572 13.9663 5.79705C13.2392 5.09839 12.2529 4.70588 11.2245 4.70588C10.1961 4.70588 9.20983 5.09839 8.48265 5.79705C7.75547 6.49572 7.34694 7.44331 7.34694 8.43137C7.34496 9.00282 7.48128 9.56689 7.74515 10.079C8.00901 10.5912 8.39319 11.0374 8.86735 11.3824C7.66126 11.8193 6.60992 12.5777 5.83673 13.5686C5.73931 13.6934 5.69748 13.8503 5.72044 14.0048C5.7434 14.1592 5.82928 14.2986 5.95918 14.3922C6.08909 14.4858 6.25237 14.526 6.41312 14.5039C6.57386 14.4818 6.7189 14.3993 6.81633 14.2745C7.32959 13.617 7.99513 13.0833 8.76025 12.7158C9.52537 12.3482 10.3691 12.1569 11.2245 12.1569C12.0799 12.1569 12.9236 12.3482 13.6887 12.7158C14.4539 13.0833 15.1194 13.617 15.6327 14.2745C15.6809 14.3363 15.7413 14.3884 15.8105 14.4277C15.8797 14.4671 15.9563 14.493 16.0359 14.5039C16.1155 14.5148 16.1965 14.5106 16.2744 14.4914C16.3523 14.4722 16.4255 14.4385 16.4898 14.3922C16.5541 14.3458 16.6083 14.2877 16.6493 14.2213C16.6902 14.1548 16.7172 14.0812 16.7285 14.0048C16.7399 13.9283 16.7355 13.8504 16.7155 13.7756C16.6956 13.7007 16.6605 13.6304 16.6122 13.5686C15.8391 12.5777 14.7877 11.8193 13.5816 11.3824ZM8.57143 8.43137C8.57143 7.92722 8.72703 7.4344 9.01855 7.01521C9.31007 6.59603 9.72442 6.26932 10.2092 6.07639C10.694 5.88346 11.2274 5.83298 11.7421 5.93133C12.2567 6.02969 12.7295 6.27246 13.1005 6.62894C13.4715 6.98543 13.7242 7.43962 13.8266 7.93408C13.9289 8.42854 13.8764 8.94107 13.6756 9.40684C13.4748 9.87261 13.1347 10.2707 12.6985 10.5508C12.2622 10.8309 11.7492 10.9804 11.2245 10.9804C10.5217 10.9778 9.84843 10.7084 9.35146 10.2309C8.8545 9.75347 8.57412 9.10662 8.57143 8.43137ZM18.5714 0H3.87755C3.49867 0 3.13531 0.144608 2.8674 0.40201C2.59949 0.659413 2.44898 1.00853 2.44898 1.37255V3.52941H0.612245C0.449867 3.52941 0.29414 3.59139 0.179322 3.7017C0.0645041 3.81202 0 3.96164 0 4.11765C0 4.27366 0.0645041 4.42328 0.179322 4.53359C0.29414 4.64391 0.449867 4.70588 0.612245 4.70588H2.44898V7.45098H0.612245C0.449867 7.45098 0.29414 7.51296 0.179322 7.62327C0.0645041 7.73359 0 7.88321 0 8.03922C0 8.19523 0.0645041 8.34484 0.179322 8.45516C0.29414 8.56548 0.449867 8.62745 0.612245 8.62745H2.44898V11.3725H0.612245C0.449867 11.3725 0.29414 11.4345 0.179322 11.5448C0.0645041 11.6552 0 11.8048 0 11.9608C0 12.1168 0.0645041 12.2664 0.179322 12.3767C0.29414 12.487 0.449867 12.549 0.612245 12.549H2.44898V15.2941H0.612245C0.449867 15.2941 0.294141 15.3561 0.179322 15.4664C0.0645043 15.5767 0 15.7263 0 15.8824C0 16.0384 0.0645043 16.188 0.179322 16.2983C0.294141 16.4086 0.449867 16.4706 0.612245 16.4706H2.44898V18.6275C2.44898 18.9915 2.59949 19.3406 2.8674 19.598C3.13531 19.8554 3.49867 20 3.87755 20H18.5714C18.9503 20 19.3137 19.8554 19.5816 19.598C19.8495 19.3406 20 18.9915 20 18.6275V1.37255C20 1.00853 19.8495 0.659413 19.5816 0.40201C19.3137 0.144608 18.9503 0 18.5714 0ZM18.7755 18.6275C18.7755 18.6795 18.754 18.7293 18.7157 18.7661C18.6775 18.8029 18.6256 18.8235 18.5714 18.8235H3.87755C3.82343 18.8235 3.77152 18.8029 3.73324 18.7661C3.69497 18.7293 3.67347 18.6795 3.67347 18.6275V1.37255C3.67347 1.32055 3.69497 1.27067 3.73324 1.2339C3.77152 1.19713 3.82343 1.17647 3.87755 1.17647H18.5714C18.6256 1.17647 18.6775 1.19713 18.7157 1.2339C18.754 1.27067 18.7755 1.32055 18.7755 1.37255V18.6275Z" fill="#545454"/>
</svg>
