<svg width="12" height="12" viewBox="0 0 12 12" fill="none" xmlns="http://www.w3.org/2000/svg">
<path d="M6.70304 0.237038L11.7881 5.45186C11.8652 5.53088 11.9199 5.61647 11.9522 5.70866C11.9846 5.80084 12.0005 5.8996 12 6.00495C12 6.1103 11.9838 6.20907 11.9514 6.30125C11.9191 6.39343 11.8646 6.47903 11.7881 6.55804L6.70304 11.7729C6.56179 11.9177 6.3851 11.9933 6.17297 11.9996C5.96083 12.006 5.77797 11.9304 5.6244 11.7729C5.4703 11.628 5.38992 11.4468 5.38324 11.2293C5.37656 11.0117 5.45053 10.8242 5.60513 10.6667L9.38041 6.79508L0.770468 6.79508C0.55217 6.79508 0.369057 6.71923 0.221128 6.56752C0.0731988 6.41582 -0.000509767 6.2283 4.24427e-06 6.00495C4.2247e-06 5.78108 0.0737118 5.5933 0.221128 5.44159C0.368543 5.28989 0.551656 5.2143 0.770468 5.21483L9.38041 5.21483L5.60513 1.34321C5.46388 1.19836 5.38992 1.01399 5.38324 0.790125C5.37656 0.566256 5.45053 0.381894 5.60513 0.237038C5.74638 0.0790125 5.92616 -4.22682e-07 6.14446 -4.41767e-07C6.36276 -4.60851e-07 6.54895 0.0790124 6.70304 0.237038Z" fill="#545454"/>
</svg>
