<svg width="23" height="17" viewBox="0 0 23 17" fill="none" xmlns="http://www.w3.org/2000/svg">
<path d="M23 1.41683V15.5833C23 16.3873 22.3783 17 21.5625 17H20.125V4.14318L11.5 10.2489L2.875 4.14318V17H1.4375C0.621719 17 0 16.3873 0 15.5833V1.41683C0 1.0145 0.153813 0.660338 0.411844 0.409591C0.54623 0.277082 0.70628 0.172555 0.882477 0.102222C1.05867 0.0318889 1.24742 -0.00281336 1.4375 0.000178197H1.91691L11.5 6.84756L21.0831 0.000178197H21.5625C21.9708 0.000178197 22.3301 0.15176 22.5882 0.409591C22.8462 0.660338 23 1.0145 23 1.41683Z" fill="#545454"/>
</svg>
