<svg width="40" height="56" viewBox="0 0 40 56" fill="none" xmlns="http://www.w3.org/2000/svg">
<path d="M22.8571 25.956V0L40 30.8L28.5714 47.6H11.4286L0 30.8L17.1429 0V25.956C16.0535 26.5724 15.2021 27.5238 14.7207 28.6627C14.2393 29.8016 14.1549 31.0644 14.4804 32.2551C14.806 33.4459 15.5234 34.4981 16.5214 35.2485C17.5193 35.999 18.7421 36.4057 20 36.4057C21.2579 36.4057 22.4807 35.999 23.4786 35.2485C24.4766 34.4981 25.194 33.4459 25.5196 32.2551C25.8451 31.0644 25.7607 29.8016 25.2793 28.6627C24.7979 27.5238 23.9465 26.5724 22.8571 25.956ZM8.57143 50.4H31.4286V56H8.57143V50.4Z" fill="#1A88CB"/>
</svg>
