<svg width="21" height="20" viewBox="0 0 21 20" fill="none" xmlns="http://www.w3.org/2000/svg">
<path d="M2.14281 0.758686L19.7283 9.14471C19.9061 9.22934 20.0562 9.36241 20.1612 9.52853C20.2663 9.69465 20.3221 9.88703 20.3221 10.0834C20.3221 10.2798 20.2663 10.4722 20.1612 10.6383C20.0562 10.8045 19.9061 10.9375 19.7283 11.0221L2.14281 19.4082C1.96253 19.4943 1.76125 19.5269 1.5629 19.5022C1.36455 19.4775 1.17749 19.3966 1.02397 19.2689C0.870454 19.1413 0.756946 18.9723 0.696952 18.7822C0.636958 18.5921 0.633002 18.3888 0.685557 18.1965L2.44494 11.7653C2.46648 11.6865 2.51081 11.6157 2.5724 11.5619C2.634 11.508 2.71013 11.4734 2.79131 11.4624L11.3128 10.3081C11.3484 10.3031 11.3821 10.2889 11.4107 10.2671C11.4392 10.2452 11.4615 10.2163 11.4756 10.1833L11.4906 10.1317C11.4972 10.0852 11.4878 10.0379 11.464 9.99743C11.4402 9.95694 11.4034 9.92566 11.3596 9.90867L11.3137 9.89619L2.80049 8.74193C2.71946 8.73077 2.64351 8.6961 2.58208 8.64224C2.52064 8.58839 2.47644 8.51771 2.45496 8.43901L0.685557 1.97119C0.632789 1.77884 0.636584 1.57542 0.696488 1.38516C0.756392 1.1949 0.869881 1.02582 1.02344 0.898051C1.17699 0.770284 1.36415 0.689219 1.5626 0.664511C1.76106 0.639802 1.96246 0.672492 2.14281 0.758686Z" fill="#FFE2CA"/>
</svg>
