<svg width="14" height="13" viewBox="0 0 14 13" fill="none" xmlns="http://www.w3.org/2000/svg">
<path d="M10.04 1.26564H12.5115C12.6753 1.26564 12.8325 1.33074 12.9484 1.44661C13.0642 1.56249 13.1293 1.71964 13.1293 1.88351V11.7694C13.1293 11.9333 13.0642 12.0904 12.9484 12.2063C12.8325 12.3222 12.6753 12.3873 12.5115 12.3873H1.38984C1.22597 12.3873 1.06881 12.3222 0.952942 12.2063C0.837069 12.0904 0.771973 11.9333 0.771973 11.7694V1.88351C0.771973 1.71964 0.837069 1.56249 0.952942 1.44661C1.06881 1.33074 1.22597 1.26564 1.38984 1.26564H3.86132V0.0299072H5.09705V1.26564H8.80426V0.0299072H10.04V1.26564ZM11.8936 6.20859H2.00771V11.1515H11.8936V6.20859ZM8.80426 2.50138H5.09705V3.73712H3.86132V2.50138H2.00771V4.97286H11.8936V2.50138H10.04V3.73712H8.80426V2.50138ZM3.24345 7.44433H4.47918V8.68007H3.24345V7.44433ZM6.33279 7.44433H7.56853V8.68007H6.33279V7.44433ZM9.42213 7.44433H10.6579V8.68007H9.42213V7.44433Z" fill="#747474"/>
</svg>
