<svg width="21" height="21" viewBox="0 0 21 21" fill="none" xmlns="http://www.w3.org/2000/svg">
<path fill-rule="evenodd" clip-rule="evenodd" d="M6.92957 0.787598H14.2835C17.6676 0.787598 20.4118 3.53185 20.4118 6.9159V14.2699C20.4118 17.6539 17.6676 20.3982 14.2835 20.3982H6.92957C3.54552 20.3982 0.80127 17.6539 0.80127 14.2699V6.9159C0.80127 3.53185 3.54552 0.787598 6.92957 0.787598ZM14.2839 18.5591C16.6494 18.5591 18.5737 16.6348 18.5737 14.2693V6.9153C18.5737 4.54977 16.6494 2.62549 14.2839 2.62549H6.92995C4.56442 2.62549 2.64014 4.54977 2.64014 6.9153V14.2693C2.64014 16.6348 4.56442 18.5591 6.92995 18.5591H14.2839Z" fill="#136A61"/>
<path fill-rule="evenodd" clip-rule="evenodd" d="M5.7041 10.5926C5.7041 7.8851 7.89926 5.68994 10.6067 5.68994C13.3142 5.68994 15.5094 7.8851 15.5094 10.5926C15.5094 13.3001 13.3142 15.4952 10.6067 15.4952C7.89926 15.4952 5.7041 13.3001 5.7041 10.5926ZM7.54248 10.5925C7.54248 12.2814 8.91767 13.6566 10.6066 13.6566C12.2956 13.6566 13.6708 12.2814 13.6708 10.5925C13.6708 8.90229 12.2956 7.52832 10.6066 7.52832C8.91767 7.52832 7.54248 8.90229 7.54248 10.5925Z" fill="#136A61"/>
<circle cx="15.8769" cy="5.32173" r="0.653277" fill="#136A61"/>
</svg>
