<svg width="21" height="17" viewBox="0 0 21 17" fill="none" xmlns="http://www.w3.org/2000/svg">
<path d="M20.1457 2.4566C19.4165 2.7765 18.6394 2.98854 17.8292 3.0915C18.6627 2.59388 19.2988 1.81191 19.5979 0.869374C18.8208 1.33267 17.9628 1.65992 17.0485 1.84255C16.3106 1.0569 15.259 0.570312 14.1118 0.570312C11.886 0.570312 10.0941 2.37694 10.0941 4.5917C10.0941 4.91038 10.121 5.21679 10.1872 5.5085C6.84486 5.34548 3.88734 3.74355 1.90054 1.30326C1.55368 1.90506 1.35022 2.59388 1.35022 3.3354C1.35022 4.72775 2.06723 5.96199 3.13601 6.67655C2.49008 6.66429 1.85642 6.47677 1.31958 6.18139C1.31958 6.19364 1.31958 6.20958 1.31958 6.22551C1.31958 8.17921 2.71316 9.80199 4.54061 10.1758C4.21336 10.2653 3.8567 10.3082 3.48655 10.3082C3.22916 10.3082 2.96932 10.2935 2.72541 10.2395C3.24632 11.8317 4.72446 13.0022 6.48206 13.0402C5.11422 14.1102 3.37746 14.7549 1.4973 14.7549C1.1676 14.7549 0.851377 14.7402 0.535156 14.6997C2.31604 15.8482 4.42663 16.5039 6.70268 16.5039C14.1008 16.5039 18.1454 10.3756 18.1454 5.06358C18.1454 4.88586 18.1393 4.71427 18.1307 4.5439C18.9286 3.97765 19.5991 3.27044 20.1457 2.4566Z" fill="#136A61"/>
</svg>
