<svg width="43" height="43" viewBox="0 0 43 43" fill="none" xmlns="http://www.w3.org/2000/svg">
<path d="M21.5328 0.737793L22.1145 0.745787C33.3248 1.05422 42.3278 10.2485 42.3278 21.5329C42.3278 32.991 33.0116 42.328 21.5328 42.328C10.0747 42.328 0.737671 32.991 0.737671 21.5329C0.737671 10.054 10.0747 0.737793 21.5328 0.737793ZM25.6502 13.2148C25.0263 12.591 24.049 12.591 23.4459 13.2148L16.1884 20.4307C15.8973 20.7219 15.7309 21.117 15.7309 21.5329C15.7309 21.9488 15.8973 22.3439 16.1884 22.635L23.4459 29.8509C23.737 30.1628 24.1321 30.3084 24.5272 30.3084C24.9431 30.3084 25.3383 30.1628 25.6502 29.8509C26.2532 29.2271 26.2532 28.2497 25.6294 27.6466L19.4948 21.5329L25.6294 15.4191C26.2532 14.8161 26.2532 13.8179 25.6502 13.2148Z" fill="#FFE2CA"/>
</svg>
