<svg width="43" height="43" viewBox="0 0 43 43" fill="none" xmlns="http://www.w3.org/2000/svg">
<path opacity="0.6" d="M21.5328 0.737793L20.951 0.745787C9.74075 1.05422 0.737686 10.2485 0.737686 21.5329C0.737686 32.991 10.0539 42.328 21.5328 42.328C32.9909 42.328 42.3279 32.991 42.3279 21.5329C42.3279 10.054 32.9909 0.737793 21.5328 0.737793ZM17.4153 13.2148C18.0392 12.591 19.0166 12.591 19.6196 13.2148L26.8771 20.4307C27.1682 20.7219 27.3346 21.117 27.3346 21.5329C27.3346 21.9488 27.1682 22.3439 26.8771 22.635L19.6196 29.8509C19.3285 30.1628 18.9334 30.3084 18.5383 30.3084C18.1224 30.3084 17.7273 30.1628 17.4153 29.8509C16.8123 29.2271 16.8123 28.2497 17.4361 27.6466L23.5707 21.5329L17.4361 15.4191C16.8123 14.8161 16.8123 13.8179 17.4153 13.2148Z" fill="#FFE2CA"/>
</svg>
