<svg width="117" height="45" viewBox="0 0 117 45" fill="none" xmlns="http://www.w3.org/2000/svg">
<path d="M60.008 6.832C61.1813 6.832 62.2107 7.06133 63.096 7.52C63.992 7.97867 64.68 8.63467 65.16 9.488C65.6507 10.3307 65.896 11.312 65.896 12.432C65.896 13.552 65.6507 14.5333 65.16 15.376C64.68 16.208 63.992 16.8533 63.096 17.312C62.2107 17.7707 61.1813 18 60.008 18H56.104V6.832H60.008ZM59.928 16.096C61.1013 16.096 62.008 15.776 62.648 15.136C63.288 14.496 63.608 13.5947 63.608 12.432C63.608 11.2693 63.288 10.3627 62.648 9.712C62.008 9.05067 61.1013 8.72 59.928 8.72H58.344V16.096H59.928ZM68.7088 8.08C68.3141 8.08 67.9834 7.95733 67.7168 7.712C67.4608 7.456 67.3328 7.14133 67.3328 6.768C67.3328 6.39467 67.4608 6.08533 67.7168 5.84C67.9834 5.584 68.3141 5.456 68.7088 5.456C69.1034 5.456 69.4288 5.584 69.6848 5.84C69.9514 6.08533 70.0848 6.39467 70.0848 6.768C70.0848 7.14133 69.9514 7.456 69.6848 7.712C69.4288 7.95733 69.1034 8.08 68.7088 8.08ZM69.8128 9.136V18H67.5728V9.136H69.8128ZM75.4979 8.992C76.1592 8.992 76.7405 9.12533 77.2419 9.392C77.7432 9.648 78.1379 9.984 78.4259 10.4V9.136H80.6819V18.064C80.6819 18.8853 80.5165 19.616 80.1859 20.256C79.8552 20.9067 79.3592 21.4187 78.6979 21.792C78.0365 22.176 77.2365 22.368 76.2979 22.368C75.0392 22.368 74.0045 22.0747 73.1939 21.488C72.3939 20.9013 71.9405 20.1013 71.8339 19.088H74.0579C74.1752 19.4933 74.4259 19.8133 74.8099 20.048C75.2045 20.2933 75.6792 20.416 76.2339 20.416C76.8845 20.416 77.4125 20.2187 77.8179 19.824C78.2232 19.44 78.4259 18.8533 78.4259 18.064V16.688C78.1379 17.104 77.7379 17.4507 77.2259 17.728C76.7245 18.0053 76.1485 18.144 75.4979 18.144C74.7512 18.144 74.0685 17.952 73.4499 17.568C72.8312 17.184 72.3405 16.6453 71.9779 15.952C71.6259 15.248 71.4499 14.4427 71.4499 13.536C71.4499 12.64 71.6259 11.8453 71.9779 11.152C72.3405 10.4587 72.8259 9.92533 73.4339 9.552C74.0525 9.17867 74.7405 8.992 75.4979 8.992ZM78.4259 13.568C78.4259 13.024 78.3192 12.56 78.1059 12.176C77.8925 11.7813 77.6045 11.4827 77.2419 11.28C76.8792 11.0667 76.4899 10.96 76.0739 10.96C75.6579 10.96 75.2739 11.0613 74.9219 11.264C74.5699 11.4667 74.2819 11.7653 74.0579 12.16C73.8445 12.544 73.7379 13.0027 73.7379 13.536C73.7379 14.0693 73.8445 14.5387 74.0579 14.944C74.2819 15.3387 74.5699 15.6427 74.9219 15.856C75.2845 16.0693 75.6685 16.176 76.0739 16.176C76.4899 16.176 76.8792 16.0747 77.2419 15.872C77.6045 15.6587 77.8925 15.36 78.1059 14.976C78.3192 14.5813 78.4259 14.112 78.4259 13.568ZM84.0056 8.08C83.611 8.08 83.2803 7.95733 83.0136 7.712C82.7576 7.456 82.6296 7.14133 82.6296 6.768C82.6296 6.39467 82.7576 6.08533 83.0136 5.84C83.2803 5.584 83.611 5.456 84.0056 5.456C84.4003 5.456 84.7256 5.584 84.9816 5.84C85.2483 6.08533 85.3816 6.39467 85.3816 6.768C85.3816 7.14133 85.2483 7.456 84.9816 7.712C84.7256 7.95733 84.4003 8.08 84.0056 8.08ZM85.1096 9.136V18H82.8696V9.136H85.1096ZM89.9308 10.976V15.264C89.9308 15.5627 90.0001 15.7813 90.1388 15.92C90.2881 16.048 90.5334 16.112 90.8748 16.112H91.9148V18H90.5068C88.6188 18 87.6748 17.0827 87.6748 15.248V10.976H86.6188V9.136H87.6748V6.944H89.9308V9.136H91.9148V10.976H89.9308ZM92.9499 13.536C92.9499 12.64 93.1259 11.8453 93.4779 11.152C93.8405 10.4587 94.3259 9.92533 94.9339 9.552C95.5525 9.17867 96.2405 8.992 96.9979 8.992C97.6592 8.992 98.2352 9.12533 98.7259 9.392C99.2272 9.65867 99.6272 9.99467 99.9259 10.4V9.136H102.182V18H99.9259V16.704C99.6379 17.12 99.2379 17.4667 98.7259 17.744C98.2245 18.0107 97.6432 18.144 96.9819 18.144C96.2352 18.144 95.5525 17.952 94.9339 17.568C94.3259 17.184 93.8405 16.6453 93.4779 15.952C93.1259 15.248 92.9499 14.4427 92.9499 13.536ZM99.9259 13.568C99.9259 13.024 99.8192 12.56 99.6059 12.176C99.3925 11.7813 99.1045 11.4827 98.7419 11.28C98.3792 11.0667 97.9899 10.96 97.5739 10.96C97.1579 10.96 96.7739 11.0613 96.4219 11.264C96.0699 11.4667 95.7819 11.7653 95.5579 12.16C95.3445 12.544 95.2379 13.0027 95.2379 13.536C95.2379 14.0693 95.3445 14.5387 95.5579 14.944C95.7819 15.3387 96.0699 15.6427 96.4219 15.856C96.7845 16.0693 97.1685 16.176 97.5739 16.176C97.9899 16.176 98.3792 16.0747 98.7419 15.872C99.1045 15.6587 99.3925 15.36 99.6059 14.976C99.8192 14.5813 99.9259 14.112 99.9259 13.568ZM106.61 6.16V18H104.37V6.16H106.61Z" fill="#002749"/>
<path d="M62.7645 36.872H58.3165L57.5805 39H55.2285L59.2445 27.816H61.8525L65.8685 39H63.5005L62.7645 36.872ZM62.1565 35.08L60.5405 30.408L58.9245 35.08H62.1565ZM70.8416 29.992C71.503 29.992 72.0843 30.1253 72.5856 30.392C73.087 30.648 73.4816 30.984 73.7696 31.4V30.136H76.0256V39.064C76.0256 39.8853 75.8603 40.616 75.5296 41.256C75.199 41.9067 74.703 42.4187 74.0416 42.792C73.3803 43.176 72.5803 43.368 71.6416 43.368C70.383 43.368 69.3483 43.0747 68.5376 42.488C67.7376 41.9013 67.2843 41.1013 67.1776 40.088H69.4016C69.519 40.4933 69.7696 40.8133 70.1536 41.048C70.5483 41.2933 71.023 41.416 71.5776 41.416C72.2283 41.416 72.7563 41.2187 73.1616 40.824C73.567 40.44 73.7696 39.8533 73.7696 39.064V37.688C73.4816 38.104 73.0816 38.4507 72.5696 38.728C72.0683 39.0053 71.4923 39.144 70.8416 39.144C70.095 39.144 69.4123 38.952 68.7936 38.568C68.175 38.184 67.6843 37.6453 67.3216 36.952C66.9696 36.248 66.7936 35.4427 66.7936 34.536C66.7936 33.64 66.9696 32.8453 67.3216 32.152C67.6843 31.4587 68.1696 30.9253 68.7776 30.552C69.3963 30.1787 70.0843 29.992 70.8416 29.992ZM73.7696 34.568C73.7696 34.024 73.663 33.56 73.4496 33.176C73.2363 32.7813 72.9483 32.4827 72.5856 32.28C72.223 32.0667 71.8336 31.96 71.4176 31.96C71.0016 31.96 70.6176 32.0613 70.2656 32.264C69.9136 32.4667 69.6256 32.7653 69.4016 33.16C69.1883 33.544 69.0816 34.0027 69.0816 34.536C69.0816 35.0693 69.1883 35.5387 69.4016 35.944C69.6256 36.3387 69.9136 36.6427 70.2656 36.856C70.6283 37.0693 71.0123 37.176 71.4176 37.176C71.8336 37.176 72.223 37.0747 72.5856 36.872C72.9483 36.6587 73.2363 36.36 73.4496 35.976C73.663 35.5813 73.7696 35.112 73.7696 34.568ZM86.4534 34.376C86.4534 34.696 86.432 34.984 86.3894 35.24H79.9094C79.9627 35.88 80.1867 36.3813 80.5814 36.744C80.976 37.1067 81.4614 37.288 82.0374 37.288C82.8694 37.288 83.4614 36.9307 83.8134 36.216H86.2294C85.9734 37.0693 85.4827 37.7733 84.7574 38.328C84.032 38.872 83.1414 39.144 82.0854 39.144C81.232 39.144 80.464 38.9573 79.7814 38.584C79.1094 38.2 78.5814 37.6613 78.1974 36.968C77.824 36.2747 77.6374 35.4747 77.6374 34.568C77.6374 33.6507 77.824 32.8453 78.1974 32.152C78.5707 31.4587 79.0934 30.9253 79.7654 30.552C80.4374 30.1787 81.2107 29.992 82.0854 29.992C82.928 29.992 83.68 30.1733 84.3414 30.536C85.0134 30.8987 85.5307 31.416 85.8934 32.088C86.2667 32.7493 86.4534 33.512 86.4534 34.376ZM84.1334 33.736C84.1227 33.16 83.9147 32.7013 83.5094 32.36C83.104 32.008 82.608 31.832 82.0214 31.832C81.4667 31.832 80.9974 32.0027 80.6134 32.344C80.24 32.6747 80.0107 33.1387 79.9254 33.736H84.1334ZM93.0004 30.008C94.0564 30.008 94.9097 30.344 95.5604 31.016C96.211 31.6773 96.5364 32.6053 96.5364 33.8V39H94.2964V34.104C94.2964 33.4 94.1204 32.8613 93.7684 32.488C93.4164 32.104 92.9364 31.912 92.3284 31.912C91.7097 31.912 91.219 32.104 90.8564 32.488C90.5044 32.8613 90.3284 33.4 90.3284 34.104V39H88.0884V30.136H90.3284V31.24C90.627 30.856 91.0057 30.5573 91.4644 30.344C91.9337 30.12 92.4457 30.008 93.0004 30.008ZM98.0905 34.568C98.0905 33.6507 98.2772 32.8507 98.6505 32.168C99.0238 31.4747 99.5412 30.9413 100.203 30.568C100.864 30.184 101.621 29.992 102.475 29.992C103.573 29.992 104.48 30.2693 105.195 30.824C105.92 31.368 106.405 32.136 106.651 33.128H104.235C104.107 32.744 103.888 32.4453 103.579 32.232C103.28 32.008 102.907 31.896 102.459 31.896C101.819 31.896 101.312 32.1307 100.939 32.6C100.565 33.0587 100.379 33.7147 100.379 34.568C100.379 35.4107 100.565 36.0667 100.939 36.536C101.312 36.9947 101.819 37.224 102.459 37.224C103.365 37.224 103.957 36.8187 104.235 36.008H106.651C106.405 36.968 105.92 37.7307 105.195 38.296C104.469 38.8613 103.563 39.144 102.475 39.144C101.621 39.144 100.864 38.9573 100.203 38.584C99.5412 38.2 99.0238 37.6667 98.6505 36.984C98.2772 36.2907 98.0905 35.4853 98.0905 34.568ZM116.772 30.136L111.284 43.192H108.9L110.82 38.776L107.268 30.136H109.78L112.068 36.328L114.388 30.136H116.772Z" fill="#002749"/>
<path d="M22 1C9.86785 1 0 10.8695 0 23H8.46154C8.46154 20.3223 9.25556 17.7048 10.7432 15.4784C12.2308 13.252 14.3452 11.5168 16.8191 10.4921C19.2929 9.4674 22.015 9.19929 24.6412 9.72168C27.2674 10.2441 29.6798 11.5335 31.5731 13.4269C33.4665 15.3202 34.7559 17.7326 35.2783 20.3588C35.8007 22.985 35.5326 25.7071 34.5079 28.1809C33.4832 30.6548 31.748 32.7692 29.5216 34.2568C27.2952 35.7444 24.6777 36.5385 22 36.5385V45C34.1322 45 44 35.1305 44 23C44 10.8695 34.1322 1 22 1ZM22 36.5385V26.3846H11.8462V36.5385H22ZM11.8462 36.5385H5.07692V43.3077H11.8462V36.5385ZM5.07692 36.5385V31.4615H0V36.5385H5.07692Z" fill="#1A88CB"/>
</svg>
