<svg width="26" height="21" viewBox="0 0 26 21" fill="none" xmlns="http://www.w3.org/2000/svg">
<path d="M23.793 17.9918C26.2443 15.3038 25.9975 11.8519 25.9897 11.8125V1.3125C25.9897 0.964403 25.8528 0.630564 25.6092 0.384423C25.3656 0.138281 25.0352 0 24.6907 0H16.8965C15.4636 0 14.2984 1.17731 14.2984 2.625V11.8125C14.2984 12.1606 14.4353 12.4944 14.6789 12.7406C14.9225 12.9867 15.2529 13.125 15.5974 13.125H19.5959C19.5684 13.7739 19.3765 14.4048 19.0386 14.9572C18.3787 16.0086 17.1355 16.7265 15.3415 17.0888L14.2984 17.2987V21H15.5974C19.2126 21 21.9705 19.9881 23.793 17.9918ZM9.49461 17.9918C11.9472 15.3038 11.6991 11.8519 11.6913 11.8125V1.3125C11.6913 0.964403 11.5544 0.630564 11.3108 0.384423C11.0672 0.138281 10.7368 0 10.3922 0H2.59806C1.16523 0 0 1.17731 0 2.625V11.8125C0 12.1606 0.136862 12.4944 0.380477 12.7406C0.624092 12.9867 0.954505 13.125 1.29903 13.125H5.29744C5.27 13.7739 5.07811 14.4048 4.74016 14.9572C4.08025 16.0086 2.83708 16.7265 1.04312 17.0888L0 17.2987V21H1.29903C4.91423 21 7.67207 19.9881 9.49461 17.9918Z" fill="#545454"/>
</svg>
