<svg width="30" height="21" viewBox="0 0 30 21" fill="none" xmlns="http://www.w3.org/2000/svg">
<path d="M11.892 3.0918V4.63776H29.2567C29.2324 4.13921 29.1803 3.50893 28.9937 3.0918" fill="#EC1C24"/>
<path d="M28.175 1.5459H11.892V3.09186H28.9937C28.808 2.5151 28.5317 1.98911 28.175 1.5459Z" fill="#E6E7E8"/>
<path d="M24.6988 0H11.892V1.54596H28.175C27.4116 0.590028 26.1551 0 24.6988 0Z" fill="#EC1C24"/>
<path d="M29.2567 4.63794H11.892V6.1839H29.2727V5.15341C29.2727 5.06148 29.2667 4.97183 29.264 4.88173C29.2622 4.85703 29.2594 4.79345 29.2567 4.63794Z" fill="#E6E7E8"/>
<path d="M11.892 7.7298H29.2727V6.18384H11.892V7.7298Z" fill="#EC1C24"/>
<path d="M11.892 9.2757H29.2727V7.72974H11.892V9.2757Z" fill="#E6E7E8"/>
<path d="M11.892 9.27588H29.2727V10.8218H11.892V9.27588Z" fill="#EC1C24"/>
<path d="M0 10.8218V12.3677H29.2727V10.8218H11.892H0Z" fill="#E6E7E8"/>
<path d="M0 12.3677H29.2727V13.9136H0V12.3677Z" fill="#EC1C24"/>
<path d="M0.00228693 14.8645C0.00228693 14.8645 -0.00182954 15.2391 0.00914772 15.4595H29.2635C29.2764 15.2336 29.2704 14.8645 29.2704 14.8645L29.2727 13.9136H0L0.00228693 14.8645Z" fill="#E6E7E8"/>
<path d="M4.57382 20.1252H24.6988C26.1592 20.1252 27.3731 19.5946 28.2024 18.5518H1.06567C1.9219 19.6175 3.15867 20.1252 4.57154 20.1252" fill="#EC1C24"/>
<path d="M1.06798 18.5516H28.2047C28.5664 18.0919 28.8366 17.5671 29.0005 17.0056H0.276703C0.443693 17.5654 0.712735 18.0896 1.07027 18.5516" fill="#E6E7E8"/>
<path d="M0.274439 17.0054H28.9983C29.148 16.5025 29.2371 15.9835 29.2635 15.4595H0.00915527C0.0544365 15.9882 0.096516 16.3875 0.274439 17.0054Z" fill="#EC1C24"/>
<path d="M11.892 0H4.57386C1.54276 0 0 2.25262 0 5.03124V10.8217H11.892V0Z" fill="#176496"/>
<path d="M1.27973 2.73328L1.52855 2.5421L1.77691 2.73328L1.6804 2.42592L1.92785 2.23793H1.62231L1.52763 1.9292L1.43341 2.23793H1.12834L1.3767 2.42592L1.27973 2.73328ZM2.92358 2.73328L3.17239 2.5421L3.42075 2.73328L3.3247 2.42592L3.57169 2.23793H3.26662L3.17194 1.9292L3.07772 2.23793H2.77172L3.02008 2.42592L2.92358 2.73328ZM4.73711 2.73328L4.98547 2.5421L5.23429 2.73328L5.13778 2.42592L5.38477 2.23793H5.08152L4.98547 1.9292L4.89079 2.23793H4.58755L4.83316 2.42592L4.73711 2.73328ZM6.53738 2.73328L6.78574 2.5421L7.03456 2.73328L6.93851 2.42592L7.1855 2.23793H6.87905L6.78574 1.9292L6.69152 2.23793H6.38599L6.63389 2.42592L6.53738 2.73328ZM8.34406 2.73328L8.59287 2.5421L8.84123 2.73328L8.74518 2.42592L8.99263 2.23793H8.68664L8.59242 1.9292L8.49819 2.23793H8.19312L8.44011 2.42592L8.34406 2.73328ZM2.15471 3.536L2.40307 3.34527L2.65143 3.536L2.55584 3.22909L2.80283 3.0411H2.49729L2.40261 2.73283L2.30976 3.0411H2.00332L2.25076 3.22909L2.15471 3.536ZM3.79901 3.536L4.04737 3.34527L4.29573 3.536L4.19968 3.22909L4.44667 3.0411H4.13931L4.04737 2.73283L3.95269 3.0411H3.64762L3.89506 3.22909L3.79901 3.536ZM5.61255 3.536L5.86045 3.34527L6.10881 3.536L6.01276 3.22909L6.26021 3.0411H5.95513L5.86045 2.73283L5.76577 3.0411H5.46024L5.70768 3.22909L5.61255 3.536ZM7.4119 3.536L7.66072 3.34527L7.90954 3.536L7.81212 3.22909L8.06002 3.0411H7.75494L7.66026 2.73283L7.5665 3.0411H7.26097L7.50841 3.22909L7.4119 3.536ZM9.22086 3.536L9.46739 3.34527L9.71576 3.536L9.61879 3.22909L9.86669 3.0411H9.56207L9.46694 2.73283L9.37317 3.0411H9.06764L9.31509 3.22909L9.22086 3.536ZM10.2395 2.73328L10.4878 2.5421L10.7366 2.73328L10.6401 2.42592L10.8871 2.23793H10.5839L10.4874 1.9292L10.3931 2.23793H10.0853L10.3355 2.42592L10.2395 2.73328ZM1.25549 9.15681L1.50431 8.96791L1.75267 9.15681L1.65662 8.85219L1.90361 8.66375L1.59853 8.66466L1.50339 8.35638L1.41009 8.66466L1.1041 8.66375L1.35154 8.85219L1.25549 9.15681ZM2.89979 9.15681L3.14815 8.96791L3.39697 9.15681L3.30046 8.85219L3.54745 8.66375L3.24283 8.66466L3.1477 8.35638L3.05393 8.66466L2.74885 8.66375L2.99584 8.85219L2.89979 9.15681ZM4.71333 9.15681L4.96169 8.96791L5.21051 9.15681L5.114 8.85219L5.36098 8.66375L5.05408 8.66466L4.96123 8.35638L4.86701 8.66466L4.56193 8.66375L4.80938 8.85219L4.71333 9.15681ZM6.5136 9.15681L6.76196 8.96791L7.01032 9.15681L6.91564 8.85219L7.16126 8.66375L6.85572 8.66466L6.7615 8.35638L6.66728 8.66466L6.3622 8.66375L6.60919 8.85219L6.5136 9.15681ZM8.31981 9.15681L8.56863 8.96791L8.81745 9.15681L8.72231 8.85219L8.96793 8.66375L8.66285 8.66466L8.56817 8.35638L8.47441 8.66466L8.16888 8.66375L8.41586 8.85219L8.31981 9.15681ZM10.2152 9.15681L10.4636 8.96791L10.7124 9.15681L10.6159 8.85219L10.8633 8.66375L10.5564 8.66466L10.4631 8.35638L10.3689 8.66466L10.0625 8.66375L10.3113 8.85219L10.2152 9.15681ZM1.27973 4.33962L1.52855 4.14843L1.77691 4.33962L1.6804 4.03226L1.92785 3.84427L1.62231 3.84519L1.52763 3.536L1.43341 3.84519L1.12834 3.84427L1.3767 4.03226L1.27973 4.33962ZM2.92358 4.33962L3.17239 4.14843L3.42075 4.33962L3.3247 4.03226L3.57169 3.84427L3.26662 3.84519L3.17194 3.536L3.07772 3.84519L2.77172 3.84427L3.02008 4.03226L2.92358 4.33962ZM4.73711 4.33962L4.98547 4.14843L5.23429 4.33962L5.13778 4.03226L5.38477 3.84427L5.08152 3.84519L4.98547 3.536L4.89079 3.84519L4.58755 3.84427L4.83316 4.03226L4.73711 4.33962ZM6.53738 4.33962L6.78574 4.14843L7.03456 4.33962L6.93851 4.03226L7.1855 3.84427L6.87905 3.84519L6.78574 3.536L6.69152 3.84519L6.38599 3.84427L6.63389 4.03226L6.53738 4.33962ZM8.34406 4.33962L8.59287 4.14843L8.84123 4.33962L8.74518 4.03226L8.99263 3.84427L8.68664 3.84519L8.59242 3.536L8.49819 3.84519L8.19312 3.84427L8.44011 4.03226L8.34406 4.33962ZM2.15471 5.14279L2.40307 4.95206L2.65143 5.14279L2.55584 4.83589L2.80283 4.64699H2.49729L2.40261 4.33962L2.30976 4.64699H2.00332L2.25076 4.83589L2.15471 5.14279ZM3.79901 5.14279L4.04737 4.95206L4.29573 5.14279L4.19968 4.83589L4.44667 4.64699H4.13931L4.04737 4.33962L3.95269 4.64699H3.64762L3.89506 4.83589L3.79901 5.14279ZM5.61255 5.14279L5.86045 4.95206L6.10881 5.14279L6.01276 4.83589L6.26021 4.64699H5.95513L5.86045 4.33962L5.76577 4.64699H5.46024L5.70768 4.83589L5.61255 5.14279ZM7.4119 5.14279L7.66072 4.95206L7.90954 5.14279L7.81212 4.83589L8.06002 4.64699H7.75494L7.66026 4.33962L7.5665 4.64699H7.26097L7.50841 4.83589L7.4119 5.14279ZM9.22086 5.14279L9.46739 4.95206L9.71576 5.14279L9.61879 4.83589L9.86669 4.64699H9.56207L9.46694 4.33962L9.37317 4.64699H9.06764L9.31509 4.83589L9.22086 5.14279ZM10.2395 4.33962L10.4878 4.14843L10.7366 4.33962L10.6401 4.03226L10.8871 3.84427L10.5839 3.84519L10.4874 3.536L10.3931 3.84519L10.0853 3.84427L10.3355 4.03226L10.2395 4.33962ZM1.25549 5.94596L1.50431 5.75523L1.75267 5.94596L1.65616 5.63951L1.90361 5.45107L1.59807 5.45198L1.50339 5.14279L1.41009 5.45198L1.1041 5.45107L1.35154 5.63951L1.25549 5.94596ZM2.89979 5.94596L3.14815 5.75523L3.39697 5.94596L3.30046 5.63951L3.54745 5.45107L3.24283 5.45198L3.1477 5.14279L3.05393 5.45198L2.74885 5.45107L2.99539 5.63951L2.89979 5.94596ZM4.71333 5.94596L4.96169 5.75523L5.21005 5.94596L5.114 5.63951L5.36098 5.45107L5.05408 5.45198L4.96123 5.14279L4.86701 5.45198L4.56193 5.45107L4.80938 5.63951L4.71333 5.94596ZM6.5136 5.94596L6.7615 5.75523L7.01032 5.94596L6.91564 5.63951L7.16126 5.45107L6.85572 5.45198L6.7615 5.14279L6.66728 5.45198L6.3622 5.45107L6.60919 5.63951L6.5136 5.94596ZM8.31981 5.94596L8.56863 5.75523L8.81699 5.94596L8.72231 5.63951L8.96793 5.45107L8.6624 5.45198L8.56817 5.14279L8.47441 5.45198L8.16888 5.45107L8.41586 5.63951L8.31981 5.94596ZM2.13047 6.74913L2.37883 6.55886L2.62719 6.74913L2.5316 6.44451L2.77813 6.25515H2.47259L2.37837 5.94596L2.28461 6.25515H1.97907L2.22652 6.44451L2.13047 6.74913ZM3.77477 6.74913L4.02313 6.55886L4.27149 6.74913L4.17544 6.44451L4.42243 6.25515H4.11644L4.02267 5.94596L3.92845 6.25515H3.62292L3.87082 6.44451L3.77477 6.74913ZM5.58876 6.74913L5.83621 6.55886L6.08503 6.74913L5.98715 6.44451L6.23596 6.25515H5.93089L5.83621 5.94596L5.74199 6.25515H5.43645L5.6839 6.44451L5.58876 6.74913ZM7.38675 6.74913L7.63648 6.55886L7.8853 6.74913L7.78925 6.44451L8.03578 6.25515H7.7307L7.63602 5.94596L7.54226 6.25515H7.23672L7.48417 6.44451L7.38675 6.74913ZM9.19342 6.74913L9.44315 6.55886L9.69197 6.74913L9.59546 6.44451L9.84337 6.25515H9.53829L9.44315 5.94596L9.34893 6.25515H9.0434L9.29084 6.44451L9.19342 6.74913ZM10.2152 5.94596L10.4636 5.75523L10.7119 5.94596L10.6159 5.63951L10.8633 5.45107L10.5564 5.45198L10.4631 5.14279L10.3689 5.45198L10.0625 5.45107L10.3113 5.63951L10.2152 5.94596ZM1.25549 7.55276L1.50431 7.36386L1.75267 7.55276L1.65616 7.24585L1.90361 7.05741L1.59807 7.05832L1.50339 6.74913L1.41009 7.05832L1.1041 7.05741L1.35154 7.24585L1.25549 7.55276ZM2.89979 7.55276L3.14815 7.36386L3.39697 7.55276L3.30046 7.24585L3.54745 7.05741L3.24283 7.05832L3.1477 6.74913L3.05393 7.05832L2.74885 7.05741L2.99539 7.24585L2.89979 7.55276ZM4.71333 7.55276L4.96169 7.36386L5.21005 7.55276L5.114 7.24585L5.36098 7.05741L5.05408 7.05832L4.96123 6.74913L4.86701 7.05832L4.56193 7.05741L4.80938 7.24585L4.71333 7.55276ZM6.5136 7.55276L6.7615 7.36386L7.01032 7.55276L6.91564 7.24585L7.16126 7.05741L6.85572 7.05832L6.7615 6.74913L6.66728 7.05832L6.3622 7.05741L6.60919 7.24585L6.5136 7.55276ZM8.31981 7.55276L8.56863 7.36386L8.81699 7.55276L8.72231 7.24585L8.96793 7.05741L8.6624 7.05832L8.56817 6.74913L8.47441 7.05832L8.16888 7.05741L8.41586 7.24585L8.31981 7.55276ZM2.13047 8.35638L2.37883 8.1652L2.62719 8.35638L2.5316 8.04902L2.77813 7.86241H2.47259L2.37837 7.55276L2.28461 7.86241H1.97907L2.22652 8.04902L2.13047 8.35638ZM3.77477 8.35638L4.02313 8.1652L4.27149 8.35638L4.17544 8.04902L4.42243 7.86241H4.11644L4.02267 7.55276L3.92845 7.86241H3.62292L3.87082 8.04902L3.77477 8.35638ZM5.58876 8.35638L5.83621 8.1652L6.08503 8.35638L5.98715 8.04902L6.23596 7.86241H5.93089L5.83621 7.55276L5.74199 7.86241H5.43645L5.6839 8.04902L5.58876 8.35638ZM7.38675 8.35638L7.63648 8.1652L7.8853 8.35638L7.78925 8.04902L8.03578 7.86241H7.7307L7.63602 7.55276L7.54226 7.86241H7.23672L7.48417 8.04902L7.38675 8.35638ZM9.19342 8.35638L9.44315 8.1652L9.69197 8.35638L9.59546 8.04902L9.84337 7.86241H9.53829L9.44315 7.55276L9.34893 7.86241H9.0434L9.29084 8.04902L9.19342 8.35638ZM10.2152 7.55276L10.4636 7.36386L10.7119 7.55276L10.6159 7.24585L10.8633 7.05741L10.5564 7.05832L10.4631 6.74913L10.3689 7.05832L10.0625 7.05741L10.3113 7.24585L10.2152 7.55276Z" fill="white"/>
</svg>
