<svg width="60" height="50" viewBox="0 0 60 50" fill="none" xmlns="http://www.w3.org/2000/svg">
<path d="M53.1716 0.820265C52.5302 0.365217 51.7966 0.0899222 51.0353 0.01858C50.2741 -0.0527622 49.5086 0.0820328 48.806 0.411116L25.7836 10.3534C25.2385 10.5967 24.6556 10.7217 24.0672 10.7217H9.32836C8.09134 10.7217 6.90499 11.2605 6.03029 12.2196C5.15558 13.1788 4.66418 14.4796 4.66418 15.836V16.2452H0V28.5197H4.66418V29.0516C4.69341 30.3866 5.19768 31.6561 6.06924 32.5889C6.9408 33.5216 8.11049 34.0436 9.32836 34.0432L14.9254 47.0541C15.3044 47.9303 15.901 48.6715 16.6469 49.1926C17.3927 49.7137 18.2574 49.9935 19.1418 50H21.4925C22.7231 49.9892 23.8999 49.4456 24.7665 48.4876C25.6332 47.5297 26.1194 46.235 26.1194 44.8856V34.5342L48.806 44.4765C49.364 44.72 49.9591 44.8449 50.5597 44.8447C51.4915 44.8282 52.3988 44.5155 53.1716 43.9446C53.7854 43.4902 54.2916 42.8821 54.6485 42.1707C55.0053 41.4592 55.2026 40.6648 55.2239 39.8531V5.0345C55.2205 4.20195 55.0317 3.3829 54.6741 2.64848C54.3165 1.91406 53.8007 1.28649 53.1716 0.820265ZM21.4552 15.836V29.0516H9.32836V15.836H21.4552ZM21.4552 44.8856H19.1045L14.5149 34.0432H21.4552V44.8856ZM27.5 29.6653C27.057 29.417 26.595 29.2117 26.1194 29.0516V15.5496C26.5905 15.4431 27.0523 15.2925 27.5 15.0996L50.5597 5.0345V39.7304L27.5 29.6653ZM55.3358 17.2681V27.4968C56.5728 27.4968 57.7592 26.958 58.6339 25.9988C59.5086 25.0397 60 23.7388 60 22.3824C60 21.026 59.5086 19.7252 58.6339 18.766C57.7592 17.8069 56.5728 17.2681 55.3358 17.2681Z" fill="#1A88CB"/>
</svg>
